<svg id="圖層_1" data-name="圖層 1" xmlns="http://www.w3.org/2000/svg" viewBox="0 0 26.44 65.77"><title>glasses</title><path d="M274.08,450.7v-1.1c.37-1.34,1.47-1.61,2.37-2a8.73,8.73,0,0,1,3.05-.77,9.45,9.45,0,0,0,2.85-1.2,8.36,8.36,0,0,0,.61-.93,20,20,0,0,0,0-2.89,12.27,12.27,0,0,1-.27-2.05c-.19-1.7,0-.4-.23-2.07-.14-1.05,0,.88-.24-.13a20,20,0,0,0-.65-3.68,6.27,6.27,0,0,1-.23-1.46,34.19,34.19,0,0,0-1.08-4c-.14-.57-.61-1.11-.59-1.65s-.76-.77-.53-1.37c-.36-.31-.13-.94-.65-1.17a14.08,14.08,0,0,0-1.27-2.83c-.64-1.42-1.33-2.81-1.94-4.24a39.86,39.86,0,0,1-1.76-4.42,10.34,10.34,0,0,1-.86-3.37,10.67,10.67,0,0,1-.5-2.36c-.25-.88-.06-1.8-.25-2.66a25.7,25.7,0,0,1-.19-5.18c0-1.13.19-2.25.27-3.38s.35-2.1.43-3.16c.51-.5.1-1.19.38-1.77a11.09,11.09,0,0,0,.35-1.77c.16-.54.21-1.15.85-1.48a57.7,57.7,0,0,1,5.93-.3c2,.06,4,0,6,0h4.92a20.56,20.56,0,0,1,5.38.35,10.45,10.45,0,0,1,.42,1.17c.12.56.16,1.13.26,1.7.05.29.17.57.23.86.22,1.08.34,2.19.53,3.27.15.82.05,1.64.2,2.43.46,2.4.09,4.82.25,7.22a13,13,0,0,1-.27,1.58,3.4,3.4,0,0,1-.18,1.49,8.23,8.23,0,0,0-.26,1.68,42.42,42.42,0,0,1-1.1,4.23c-.38,1-.77,2-1.06,3-.21.76-.62,1.42-.89,2.15-.47,1.28-1.24,2.45-1.72,3.72-.7,1.84-1.65,3.56-2.26,5.44-.3.94-.7,1.86-1,2.82a26.13,26.13,0,0,0-.64,2.61c-.06.29-.19.57-.23.86a8.38,8.38,0,0,0-.27,2.06,4.83,4.83,0,0,1-.22,1.22c-.07.37.12.75-.21,1.13-.16.18-.05-2.39,0-2.07.17,1.9-.32,2.77-.25,4.66s.19-2.22,0-.36a21,21,0,0,0-.18,3.06c0,.37-.19.8.19,1.12,0,.05.94,1.21,1,1.24a25.84,25.84,0,0,0,2.81,1.34c.85.3,1.74.42,2.59.7a3.85,3.85,0,0,1,1.82,1.1,1.45,1.45,0,0,1-.1,2.22,4.41,4.41,0,0,1-1.75,1c-.66.19-1.38.12-2.05.27-1.36.32-2.77,0-4.1.28a22.48,22.48,0,0,1-3.75.17c-.76,0-1.53-.17-2.3-.21a15.83,15.83,0,0,1-2.39,0,9.94,9.94,0,0,1-3.56-.94C275.11,451.54,274.58,451.08,274.08,450.7ZM286.29,431c-.38.26-.14.63-.18.92,0,0,.1,0,.18.06a3.79,3.79,0,0,1,.31-1.5c-.19.16-.28.21-.27.24a1.33,1.33,0,0,0,.1.34C286.47,430.9,286.51,430.75,286.29,431Zm.35-2.34c-.64,0-1.2,0-1.76,0s-1.1-.15-1.91-.26l1.43,1.19a1.88,1.88,0,0,0,2.13-.94l.05.05.2-.17-.08-.08C286.65,428.49,286.59,428.55,286.64,428.64Zm7.36-16.8a.47.47,0,0,0,.12,0c.18-.8.48-1.57.66-2.38s.41-1.82.62-2.72.3-2.1.5-3.15a15.32,15.32,0,0,0,0-1.92c0-.65.14-1.29.23-1.94.18-1.22-.34-2.4-.24-3.62,0-.34,0-.7,0-1.08a20.14,20.14,0,0,0-2.86.21,12,12,0,0,1-3.11,0c-1-.08-2,.3-3,.25a34.7,34.7,0,0,1-5.19-.19,16.56,16.56,0,0,0-3.23,0c-.24,0-.55.09-.7,0-.59-.42-1.25-.08-1.84-.23a4.32,4.32,0,0,0-1.59-.24,1.4,1.4,0,0,0-.54,1.47c.11,2.24-.22,4.5.22,6.74a25.23,25.23,0,0,1,.26,2.89,1.34,1.34,0,0,0,0,.35c.35.87.37,1.83.67,2.72s.45,1.73.69,2.59c.2.68.57,1.3.74,2a23.27,23.27,0,0,0,1.57,3.79c.92,2.1,2.06,4.1,3,6.2.36.84.75,1.69,1,2.58a2.57,2.57,0,0,0,1.35,1.71,4.32,4.32,0,0,0,4.08-.45.62.62,0,0,0,.27-.36c.67-1.92,1.6-3.73,2.42-5.59a7.9,7.9,0,0,0,.68-1.28,20.55,20.55,0,0,1,1.42-3.13c.17-.38-.16-.87.29-1.2-.05-1,.48-1.82.52-2.8a8.82,8.82,0,0,1,.24-1.69,8.29,8.29,0,0,0,.21-1c.05-.37.2-.73.22-1.1a25.48,25.48,0,0,1,.21-3.14,19.81,19.81,0,0,0,0-3.36v-3.47l.35-.35.37.34c0,1.48,0,3,0,4.51s-.15,3.05-.23,4.58c0,.08,0,.19,0,.24-.44.47,0,1.1-.26,1.57a4.92,4.92,0,0,0-.24,1.65c-.38.26-.14.63-.18.92,0,0,.1,0,.18.06C294,412.44,294,412.14,294,411.84Zm-19.68-23.31c.07,1-.34,1.88-.26,2.79s0,1.82,0,2.74h1.15a11.26,11.26,0,0,1,.18-2.35c.22-.72-.21-1.58.5-2.16l.32.32c-.43.38-.18.88-.22,1.33a5.4,5.4,0,0,1-.22,1.47,3.86,3.86,0,0,0,0,1.31,5.71,5.71,0,0,0,1.07.33c.68,0,1.36,0,2,0s1.29.21,1.94.22c2.88,0,5.75,0,8.63,0,.24,0,.54.09.71,0a2.5,2.5,0,0,1,1.71-.2c.65.08,1.2-.29,1.82-.26a4.23,4.23,0,0,0,2.13-.32,6.34,6.34,0,0,1-.12-.79c0-1.23,0-2.45,0-3.69h-5c-1.6,0-3.2-.07-4.79,0s-3.21-.37-4.82-.27c-.56,0-1.13,0-1.68,0-1.54.15-3.05-.27-4.58-.26C274.67,388.79,274.54,388.66,274.32,388.53Zm9.85,56.92a4.68,4.68,0,0,1-1.94,2.12,15.92,15.92,0,0,1-2.57,1.14l1.15.16,0,.36-1.14.12v.13h2.2l.39.39-.34.37a22.47,22.47,0,0,0-2.72,0c-.91.11-1.76-.47-2.86-.13a13.76,13.76,0,0,0,2.36.57c2.76.13,5.53.19,8.29.26,1.12,0,2.24,0,3.36,0a19.35,19.35,0,0,0,2.53-.25,4.8,4.8,0,0,0,1.16-.52c-1.08-.27-2,.39-3.05.32s-2.13,0-3.16,0v-.65c.58-.25,1.15.05,1.75-.23a4.82,4.82,0,0,1,1.8-.12c-2.24-.75-4.16-1.82-5.28-4a6.76,6.76,0,0,0-.22-2c-.1-.8,0,.4-.21-.42a12.64,12.64,0,0,1-.05-2.39c0-.81-.2-.61-.22-1.42,0-1.48,0,3,0,1.56a20.22,20.22,0,0,1,.21-4.46c.13-.53,0,1.89,0,1.33a3.94,3.94,0,0,1,0-1.54c.24-.49,0-.94.17-1.42a3.32,3.32,0,0,0,0-1.26l-.49.33v-2.95l-.71.06a13.53,13.53,0,0,1,.48,3l-.71-.56a4.32,4.32,0,0,0-.63-2.85c-.23,1.21.65,2.2.41,3.32a25.66,25.66,0,0,1,1.21,2.89l-.73-.62-.1-.41-.12,0v1c.16.6.87,1,.64,1.8l-.76-.67a9.5,9.5,0,0,1,.33,1.31c0,.92.08-1.15,0-.24s.31.76.26,1.66c0,.44,0-1.12,0-.69s-.19-.1-.22.35a5.4,5.4,0,0,1-.22,1.94c-.19.88,0-.17,0,.75S284,444.66,284.17,445.45Zm-6,3.63a1,1,0,0,0,1.11,0Zm7.67-15.92h.21l-.06-.88h-.15Z" transform="translate(-271.67 -387.34)"/><path d="M275.05,395.3h.38c0,.08.09.15.09.22,0,1.64,0,3.28,0,4.91a26.43,26.43,0,0,0,.27,4.09c.18,1,.36,2,.63,3,.15.58.36,1.14.49,1.72s.27,1.17.46,1.73a25,25,0,0,0,1.87,4.5c.31.55.29,1.26,1.1,1.75l-.84.25c-.27-.18-.45-.72-.72-1.22a26.12,26.12,0,0,1-2.11-5,11.89,11.89,0,0,1-.92-3.46c-.49-.87-.28-1.93-.72-2.82a.24.24,0,0,1,0-.12c.18-1.22-.29-2.4-.25-3.61a35.71,35.71,0,0,1,0-3.59C275,396.85,275,396.09,275.05,395.3Z" transform="translate(-271.67 -387.34)"/><path d="M283.67,398.79c-.21.44.65.87.07,1.35.14.59-.54.8-.59,1.32l-1.43.54-1.58-.76a3.09,3.09,0,0,1-.28-2.57c.16-.14.39-.37.64-.56a6.21,6.21,0,0,1,.65-.39A2.35,2.35,0,0,1,283.67,398.79Zm-2.31,2h.9l.52-1.14-.67-.76c-.5.08-1-.18-1.3.42v.93Z" transform="translate(-271.67 -387.34)"/><path d="M281.33,403.6a1.47,1.47,0,0,1,.06,2,1.84,1.84,0,0,1-1.65.46l-.84-1v-1l.87-.7A1.53,1.53,0,0,1,281.33,403.6Zm-.79.72c-.26.21-.74-.19-.68.52h.68Z" transform="translate(-271.67 -387.34)"/><path d="M283.12,406.8h.69l.58.71.15.65-.52.77h-1l-.75-.75A2,2,0,0,1,283.12,406.8Zm.56,1.12v-.08h-.24v.08Z" transform="translate(-271.67 -387.34)"/></svg>