<?xml version="1.0" encoding="utf-8"?>
<!-- Generator: Adobe Illustrator 23.1.0, SVG Export Plug-In . SVG Version: 6.00 Build 0)  -->
<svg version="1.1" id="圖層_1" xmlns="http://www.w3.org/2000/svg" xmlns:xlink="http://www.w3.org/1999/xlink" x="0px" y="0px"
	 viewBox="0 0 529.6 142.4" style="enable-background:new 0 0 529.6 142.4;" xml:space="preserve">
<style type="text/css">
	.st0{fill:#E6A33C;}
</style>
<title>logo</title>
<path class="st0" d="M452.1,86.9c-4.3-4.7-8.7-9.4-12.9-14.3c-0.5-0.9-0.7-2-0.5-3c3.4-27.1,26.3-48.2,52.5-44.4
	c16.7,2.4,27.7,13.1,34.3,28.8c11.8,28.3-2.6,61-30.8,69.9c-23.3,7.4-50.4-10.2-54.2-35.2c0-0.6,0-1.1,0.1-1.7c3.1,0.3,6,0.7,9,0.8
	c0.8,0,1.7-0.7,2.6-1.1l2.2,5.9c6,16,25.1,24.4,40.4,17.7c20.7-9.1,28.3-37.9,15.4-58.5c-7.7-12.2-21.9-17.4-35.1-12.3
	c-12.4,4.8-20.3,14.3-22.8,27.8C451,73.7,452,80.4,452.1,86.9z"/>
<path class="st0" d="M435.5,125.7c-6.2,0-11.5,0.1-16.8-0.1c-1.4-0.1-2.7-0.7-3.6-1.7c-15.1-16.8-30.2-33.6-45.2-50.5
	c-0.7-0.6-1.2-1.5-1.3-2.4c-0.1-11-0.1-22-0.1-33.4h12.4l0.5-0.8l-12.6-12c16.1-0.6,31.6-0.4,46,6.4c11.7,5.6,17.5,17.4,14.4,28.8
	c-1.7,6.2-5.6,10.9-10.8,14.4c-3.2,2.2-6.5,4.1-10,5.6c-3.5,1.5-7.2,2.4-11.3,3.6L435.5,125.7z M382.3,71.6
	c10.6,1,21.3-1.9,28.1-7.6c8.1-6.7,7.4-16-1.8-21.1c-8.1-4.5-17-5.1-26.3-5.2V71.6z"/>
<path class="st0" d="M242,92.9c2,14.3,14.8,21.6,29.4,17.4c1.4-0.4,2.7-0.9,4-1.5c4-2,7.3-4.7,7.4-9.7c0.2-5.4-1.9-9.5-6.7-11.7
	c-5.5-2.6-11.3-4.6-16.9-7c-4.8-2.1-9.8-4-14.3-6.7c-9.7-6-13.3-15.2-11.7-26.3c1.6-11.5,9-18,19.6-21c5.9-1.7,12-2.4,18.1-0.5
	c1.5,0.4,2.8,1.1,4.8,1.9c-4.6,3.7-8.8,7.1-13,10.3c-0.6,0.5-1.8,0.3-2.8,0.4c-6.6,0.3-12.1,4-13.8,9.3c-1.9,6.1-0.1,11.3,6.2,15.5
	c3.7,2.3,7.5,4.2,11.6,5.6c4.9,2,9.9,3.6,14.9,5.3c9.8,3.3,15.8,9.7,16.7,20.3c0.9,10.9-3.1,19.5-12.2,25.7
	c-16.2,11-41.3,5.3-50.5-11.4c-1.3-2.4-1.7-4.1,0.6-6.3C236.5,99.6,239,96.3,242,92.9z"/>
<path class="st0" d="M205.1,24.9c4.6,4.4,8.8,8.5,12.8,12.6c0.5,0.8,0.7,1.7,0.6,2.7c0,28,0,56,0,83.9c0,0.4-0.1,0.9-0.2,1.3h-13.3
	V24.9z"/>
<path class="st0" d="M319.5,142.4c0-26.1,0.2-55-0.1-80c-0.1-6.8,1-12.4,6.2-16.9c2.2-1.9,3.9-4.5,6.3-7.3c0.2,1.6,0.4,2.4,0.4,3.3
	c0,27,0,58-0.1,85.1c-0.1,1.8-0.8,3.6-2,5C327,135,323.5,138.3,319.5,142.4z"/>
<path class="st0" d="M291.9,24.9h69v12.6c-1,0.1-2.2,0.2-3.3,0.2c-16,0-31.9,0.1-47.9-0.1c-2-0.1-3.8-0.8-5.4-2
	C300.2,32.4,296.4,28.8,291.9,24.9z"/>
<path class="st0" d="M269.3,38.5h12.6v6.7L269.3,38.5z"/>
<path class="st0" d="M178.8,73.1c-2.6-1.5-5.4-2.8-8.2-4.2c17.1-14.3,9.8-32.7-7.6-40.1c-3.8-1.6-7.8-2.7-11.8-3.3l-12.6,14.1
	c-3.8,4.2-7.1,7.8-10.3,11.5c-0.2,0.2-0.3,0.5-0.3,0.7l-0.2,13.7c0,1,0,2,0.1,3.1c0.1,1.5,0.7,2.9,1.7,4.1c3.6,4.4,7.3,8.7,11,13
	l-5.1-0.1h-7.6v2.7l0,0c0,1.5,0,3,0,4.6l0,0v32.7c0,0,14.5,0.4,25.5-0.1c0.4,0.1,0.8,0.1,1.3,0.1c2.1-0.1,4.2-0.3,6.3-0.6
	c1-0.1,2.1-0.3,3.1-0.6l0,0c6.6-1.4,12.7-4.2,18-8.4C197.4,103.6,195.9,83.2,178.8,73.1z M140.8,50V37.6c7.6,0.1,14.6,1.4,20.5,5.9
	c6.2,4.7,6.1,10.7-0.2,15.4c-6.1,4.5-13.2,5.1-20.4,5.3V50z M169.9,107c-4.7,2.8-10.4,4.3-15.8,5.5l0,0c-4.5,0.7-9.1,0.7-13.6,0
	l0.2-24.4h0.1V77c5.3,0.3,10.2,0.1,14.8,1.1c5.1,1.1,10.1,3,14.6,5.7C180,90.2,180,101,169.9,107L169.9,107z"/>
<path class="st0" d="M67,90.1c3.7-4.5,7.7-8.8,10.9-13.6c6.1-9.3,9.7-19.4,7.3-30.9c-1-5-3.2-9.3-7.6-12.2c-2-1.3-4.5-2.9-3.6-6
	c0.3-1.2,2.1-3.1,2.5-2.9c2.2,1,4.8,2,6.2,3.9c1.9,2.5,2.9,5.7,4.2,8.6c0.9,2,1.3,4.2,2.4,6c0.9,1.3,2.6,2.9,3.9,2.8
	s3.1-1.8,3.7-3.3c3.1-6.7,2.1-13.5-0.8-20c-0.7-1.6-1.9-3.3-1.7-4.7c0.4-2.1,1.4-4,3-5.5c0.6-0.5,3.7,1.2,4.5,2.6
	c3.4,5.9,3.8,12.6,2.7,19.1c-4.2,24.7-17.1,43.3-37.2,56.7L67,90.1z"/>
<path class="st0" d="M111.8,40.3c3.2-6.6,6.7-13.2,12.7-17.4c2.7-1.6,5.7-2.4,8.8-2.4c3.1-0.1,3.9,2.5,1.8,5c-1,1.4-2.3,2.4-3.9,3
	C123.5,30.3,117.4,34.8,111.8,40.3z"/>
<path class="st0" d="M102.9,62.9c1.3-2.4,2.9-4.5,5.8-4.1c1.1,0.1,2.1,1.5,3.1,2.3c-0.7,0.8-1.3,2.1-2.2,2.4
	c-2.1,0.4-4.3,0.7-6.4,0.9L102.9,62.9z"/>
<path class="st0" d="M84,12c-0.6-2.3-1.6-4.6-1.8-7c-0.1-0.8,1.7-1.8,2.6-2.8c0.5,1,1.3,1.9,1.3,2.9c-0.1,2.3-0.3,4.5-0.7,6.8L84,12
	z"/>
<path class="st0" d="M110.5,8.9c0.3-2.5,0.7-5,1.3-7.5c0.2-0.7,1.6-1,2.4-1.5c0.3,0.8,1.1,1.8,0.9,2.4c-0.8,2.4-1.9,4.7-2.9,7.1
	L110.5,8.9z"/>
<path class="st0" d="M34.1,93c3.1,0.6,6.6,1.4,10.1,1.9c13.3,1.8,28.5-15.2,28.3-27.7c0-1.8-0.3-3.6-0.9-5.3
	c-1.2-3.6-4.7-5.4-7.8-4.3c-2.7,0.9-3.6,3.6-2.9,7.6c0.7,3.5,1.1,7.2,1,10.8c-0.5,6.4-5.8,11.3-12.1,11.3c-5.7-0.2-8.8-3.8-10.1-9.2
	c-11.8,4.4-20.8-5.8-21.5-24.2C9.5,60,3.2,70.6,1,81.9L10.4,93L0,92.2c0,2.6,0.3,5.1,0.8,7.6c3.4,15.9,15.5,26.4,31.1,26.9
	c8.6,0.3,16.4-2.3,23.6-6.9c11-7,17.9-17.4,21.9-31.1C59.5,102.1,41.4,100.9,34.1,93z"/>
</svg>
