<?xml version="1.0" encoding="utf-8"?>
<!-- Generator: Adobe Illustrator 23.1.0, SVG Export Plug-In . SVG Version: 6.00 Build 0)  -->
<svg version="1.1" id="圖層_1" xmlns="http://www.w3.org/2000/svg" xmlns:xlink="http://www.w3.org/1999/xlink" x="0px" y="0px"
	 viewBox="0 0 1920 1080" style="enable-background:new 0 0 1920 1080;" xml:space="preserve">
<style type="text/css">
	.st0{fill:none;stroke:#FFFFFF;stroke-width:16;stroke-miterlimit:10;}
	.st1{fill:#FFFFFF;stroke:#FFFFFF;stroke-miterlimit:10;}
</style>
<circle class="st0" cx="960" cy="540.3" r="531.3"/>
<g>
	<g>
		<path class="st1" d="M1232.7,440.2c-0.7,2.9-1,5.6-1.4,8.9c-1.4,12-2.5,24.4-4.3,36.5c-1.8,14.5-3.5,29.1-5.3,43.6
			c-1,9.2-2.1,18.4-3.1,27.6c-1,10.6-2.1,20.9-3.9,31.5c-1.4,8.5-6.8,14.5-15.5,16.3c-7.1,1.4-14.2,2.5-21.6,3.5
			c-9.2,1.4-18.4,2.9-27.6,4.3c-13.4,2.1-26.9,4.3-40,6.4c-13.8,2.1-27.3,4.3-41.1,6.4c-11.3,1.8-22.7,3.5-34,5.3
			c-10.6,1.8-21.6,3.5-32.2,5c-10.3,1.4-20.2,2.9-30.5,4.6c-8.5,1.4-17,2.9-25.5,3.9c-11.7,1.8-23.4,3.5-35.1,5.3
			c-13.1,2.1-25.8,3.9-39,6c-14.2,2.1-28,4.3-42.1,6.4c-6,1-12,2.1-18.8,3.1c0.7,7.1,1.8,14.2,3.9,21.3c2.5,0,4.6,0,6.8,0
			c126.1,0,252.2,0,378.2,0c4.6,0,9.5,0.4,13.8,2.9c7.8,3.9,12,11.7,10.6,21.9c-1,6.4-6.4,14.2-16.3,15.5c-2.5,0.4-5.3,0.7-8.1,0.7
			c-132.1,0-264.6,0-396.7,0c-4.3,0-8.9-0.4-12.4-1.8c-7.1-2.9-11.7-8.5-13.1-16.3c-2.9-14.5-5.3-29.1-8.1-43.9
			c-0.4-2.5-1.4-5-2.9-7.4c-1.8-3.9-3.1-7.8-2.1-12.4c0.4-1.8,0.4-4.3,0-6c-3.9-20.6-7.8-41.1-11.7-61.7c-5-26.9-9.9-53.9-14.9-80.7
			c-3.9-20.9-7.8-41.5-11.7-62.3c-3.5-18.8-6.8-37.2-9.9-56c-1-6-2.5-12-3.5-18.1c-3.5-1.4-6.8-2.9-9.9-4.3
			c-23.1-9.5-46-18.8-69.1-28.3c-1-0.4-2.5-1-3.5-1.4c-7.1-2.5-12.4-7.4-14.9-14.5c0-3.5,0-7.1,0-10.3c2.5-6,6-11,12.4-13.4
			c2.1-0.7,4.6-1.4,6.8-1.8c0.4,0,0.7,0,1,0c4.3,1.4,8.9,2.5,13.1,3.9c20.9,8.5,41.7,17,62.7,25.5c8.5,3.5,17,7.1,25.8,10.6
			c8.1,3.1,13.1,9.2,14.5,17.7c0.4,2.5,1,5.3,1.4,7.8c2.5,12.8,4.6,25.8,7.1,38.6c1,6,2.1,12,3.5,18.4c2.1,0,4.3,0.4,6.4,0.4
			c145.5,0,290.8,0,436.4,0c2.1,0,4.3,0,6,0c5.6,0.4,11,1.8,14.9,6.4c1.8,2.5,3.5,5.3,5.3,7.8
			C1232.7,428.4,1232.7,434.4,1232.7,440.2z M902.2,518.8c-1-7.8-1.8-15.5-2.9-23.1c-1.8-13.8-3.5-27.6-5.6-41.1
			c-0.4-1.8-0.7-3.1-1-4.6c-9.5-1-116.9-0.4-120.8,0.4c4.6,26.2,9.5,52,14.5,79c4.3-0.4,8.1-0.7,11.7-1c9.2-0.7,18.4-1.4,27.3-2.1
			c12.4-1,25.2-2.5,37.6-3.5c12-1,24.1-2.1,36.1-2.9C900.4,519.5,901.2,519.1,902.2,518.8z M1061.6,505.4c0-2.9,0-5.3,0-7.8
			c-0.7-11.7-1-23.7-1.8-35.5c-0.4-4.3-0.7-8.5-1-12.4c-47.5,0-94.6,0-141.6,0c-0.7,0-1,0-1.8,0.4c0,0-0.4,0-0.4,0.4
			s-0.4,0.4-0.7,0.7c2.9,21.9,6,43.9,8.9,66.6c2.9-0.4,5.3-0.4,7.8-0.7c6.4-0.4,12.8-0.7,19.4-1.4c9.2-0.7,18.1-1.8,27.3-2.5
			c8.9-0.7,17.7-1.4,26.2-2.1c9.2-0.7,18.4-1.8,27.6-2.5c8.9-0.7,17.7-1.4,26.9-2.1C1059.5,506,1060.2,505.6,1061.6,505.4z
			 M934.5,604.1c44.2-6.4,87.5-13.1,131.4-20.2c-1.4-19.4-1.4-38.6-3.1-57.4c-5.6,0.4-10.6,0.7-15.5,1c-8.5,0.7-17.3,1.8-25.8,2.5
			c-9.2,0.7-18.1,1.4-27.3,2.1c-4.3,0.4-8.1,0.7-12.4,1c-9.2,0.7-18.1,1.8-27.3,2.5c-8.5,0.7-17,1.4-25.5,2.1c-1,0-1.8,0.7-2.9,1
			C928.8,560.5,931.6,582.2,934.5,604.1z M804.8,624.3c18.1-2.9,36.5-5.3,54.5-8.1c18.1-2.9,36.5-5,54.2-8.5
			c-2.9-22.7-6-45-8.9-67.7c-38.2,3.1-76.2,6.4-113.7,9.9C791,554.5,803.1,619.7,804.8,624.3z M1189.4,450.1c-4.3-1-104.8-1-108.8,0
			c-0.7,5.3,0,11,0.4,16.3c0.7,10.6,0.7,21.3,1,31.5c0,1.8,0,3.1,0.4,5.3c2.1,0,3.5,0,5.3,0c6.8-0.7,13.1-1.4,19.8-1.8
			c10.3-0.7,20.9-1.4,31.2-2.1c4.3-0.4,8.5-0.7,12.8-1c6.4-0.7,12.4-1,18.8-1.8c5-0.4,9.5-1,14.2-1.4
			C1186.3,489.3,1190.2,454,1189.4,450.1z M1086,580.7c8.5,0,86.7-12.8,90.4-14.5c2.1-16.3,4.3-32.6,6-49.6
			c-17,1.4-33.3,2.9-49.6,4.3c-16.3,1.4-32.6,2.1-49.2,4.3C1084.7,544,1085.3,562.4,1086,580.7z"/>
		<path class="st1" d="M857.3,836.1c-4.6-1.8-9.2-3.1-13.4-5.6c-12.4-7.8-18.8-19.4-19.8-33.6c-0.4-7.4,1.8-14.9,5.6-21.6
			c11.3-19.4,34.3-25.8,52.8-17c15.3,7.1,23.4,19.2,24.1,36.1c0.4,17.3-7.4,29.7-22.3,38.2c-3.1,1.8-6.8,2.5-9.9,3.9
			C868.6,836.1,862.9,836.1,857.3,836.1z"/>
		<path class="st1" d="M1096.3,836.1c-5-2.1-10.3-3.5-14.5-6.4c-10.3-6.8-15.9-16.3-18.1-28.7c-2.9-16.3,7.4-36.8,25.5-43.9
			c19.2-7.4,40-1,51.4,17.7c9.2,15.5,7.4,35.5-6.4,49.6c-4.6,4.6-9.9,7.8-15.9,9.9c-1.4,0.4-2.9,1-4.3,1.4
			C1107.6,836.1,1102,836.1,1096.3,836.1z"/>
	</g>
	<g>
		<path class="st1" d="M1179.9,409l-37.2-115.4l-157.6,51l21.3,64.1L1179.9,409L1179.9,409z M1150.2,408.6h-114l-15.9-45.4
			l103.8-33.6L1150.2,408.6z"/>
		<path class="st1" d="M998.6,409l-38.2-115.4l-157.6,51l21.3,64.1L998.6,409L998.6,409z M967.4,408.6H853.7l-15.9-45.4l103.7-33.6
			L967.4,408.6z"/>
	</g>
</g>
</svg>
