<?xml version="1.0" encoding="utf-8"?>
<!-- Generator: Adobe Illustrator 23.1.0, SVG Export Plug-In . SVG Version: 6.00 Build 0)  -->
<svg version="1.1" id="圖層_1" xmlns="http://www.w3.org/2000/svg" xmlns:xlink="http://www.w3.org/1999/xlink" x="0px" y="0px"
	 viewBox="0 0 1920 1080" style="enable-background:new 0 0 1920 1080;" xml:space="preserve">
<style type="text/css">
	.st0{fill:#FFFFFF;stroke:#FFFFFF;stroke-miterlimit:10;}
	.st1{fill:none;stroke:#FFFFFF;stroke-width:16;stroke-miterlimit:10;}
</style>
<g>
	<g>
		<g>
			<path class="st0" d="M909.7,751.1c0-0.7-0.4-1.4-0.7-2.1c-0.4-0.7-0.7-1.4-1.1-2.1c-0.4-0.7-1.1-1.4-1.4-1.8
				c-0.4-0.4-1.1-1.1-1.8-1.4c-0.7-0.4-1.4-0.7-2.1-1.1c-0.7-0.4-1.4-0.4-2.1-0.7c-1.4-0.4-3.2-0.4-4.6,0c-0.7,0-1.4,0.4-2.1,0.7
				c-0.7,0.4-1.4,0.7-2.1,1.1c-0.7,0.4-1.1,1.1-1.8,1.4c-0.7,0.4-1.1,1.1-1.4,1.8c-0.4,0.7-0.7,1.4-1.1,2.1
				c-0.4,0.7-0.7,1.4-0.7,2.1s-0.4,1.4-0.4,2.1s0,1.4,0.4,2.1c0,0.7,0.4,1.4,0.7,2.1c0.4,0.7,0.7,1.4,1.1,2.1
				c0.4,0.7,1.1,1.4,1.4,1.8c0.4,0.4,1.1,1.1,1.8,1.4c0.7,0.4,1.4,0.7,2.1,1.1c0.7,0.4,1.4,0.4,2.1,0.7c0.7,0.4,1.4,0.4,2.1,0.4
				c0.7,0,1.4,0,2.1-0.4c0.7,0,1.4-0.4,2.1-0.7c0.7-0.4,1.4-0.7,2.1-1.1c0.7-0.4,1.1-1.1,1.8-1.4c0.7-0.4,1.1-1.1,1.4-1.8
				c0.4-0.7,0.7-1.4,1.1-2.1c0.4-0.7,0.4-1.4,0.7-2.1c0.4-0.7,0.4-1.4,0.4-2.1C910.1,752.5,909.7,751.8,909.7,751.1z"/>
		</g>
	</g>
	<g>
		<g>
			<path class="st0" d="M1242.3,754.6v-0.4c-10.6-24.8-35.8-34-65.2-24.1l-80.8,22.3c-4.6-14.2-16.3-26.2-32.6-32.2h-0.4l-88.5-30.1
				c-7.4-9.6-30.5-34-73.7-34c-30.1,0-57,20.9-72.3,43.2H722c-6.4,0-11.7,5.3-11.7,11.7V857c0,6.4,5.3,11.7,11.7,11.7h68.7
				c6.4,0,11.7-5.3,11.7-11.7v-9.9h32.2c6.4,0,11.7-5.3,11.7-11.7v-3.2c18.8,1.8,25.1,5.3,42.1,15.2c13.5,7.8,33.3,19.1,69.4,35.4
				c0.4,0,0.4,0,0.4,0.4c7.1,2.8,20.5,7.1,37.2,7.1c11.7,0,24.8-2.1,38.3-8.1l178.2-63.8c0.4,0,0.7-0.4,1.1-0.4
				C1229.5,809.5,1255,787.6,1242.3,754.6z M779,845.3h-45.7V722.7H779V845.3z M822.6,823.7H802V722.7h20.5V823.7z M1203.3,796.4
				l-178.2,63.8c0,0-0.4,0-0.7,0.4c0,0-0.4,0-0.4,0.4c-24.8,11.3-48.5,4.6-57.7,1.1c-35.1-15.6-53.5-26.6-67.3-34.4
				c-18.8-11-28-16.3-53.8-18.4V716c11-18.1,32.2-36.5,55.3-36.5c39.3,0,56,25.5,56.7,26.6c1.4,2.1,3.5,3.9,6,5l91.7,31.2
				c14.5,5.7,22.3,18.1,18.8,30.5c-1.8,5.7-5.3,10.6-10.6,13.5s-11.3,3.5-17,2.1l-103.8-32.9c-6-1.8-12.8,1.4-14.5,7.4
				c-2.1,6,1.4,12.4,7.4,14.5l103.8,32.9h0.4c4.3,1.1,8.5,1.8,12.8,1.8c7.8,0,15.2-1.8,22.3-5.7c10.6-6,18.4-15.6,21.6-27.3
				c0.4-1.1,0.4-1.8,0.7-2.8l86.8-24.1c12.4-4.3,29-5.7,36.5,11C1228.1,783,1208.6,793.9,1203.3,796.4z"/>
		</g>
	</g>
	<g>
		<path class="st0" d="M1121.2,525.1c-3.2,0.7-6.4,1.1-9.6,1.1c-4.3,0-8.1-0.4-12-0.7c-25.1-3.5-38.3-17.7-42.9-23.4
			c-0.4-0.4-1.1-1.8-1.4-1.8c-1.4-2.5-3.5-4.3-6.4-5.3l-92.1-31.2c-14.5-5.7-22.3-18.1-18.8-30.8c1.8-5.7,5.3-10.6,10.6-13.5
			c5.3-2.8,11.3-3.5,17-2.1l68.7,22c-53.8-53.5-108-107.3-121.8-121.1c-28.3-28-89.6-14.9-109.4-34.4
			c-19.8-19.5-109.8-109.1-109.8-109.1l-14.5,14.9l-8.5,8.9l-14.5,14.9c0,0,89.6,89.3,109.8,109.1c19.8,19.8,6.7,81.1,35.1,109.4
			c28.3,28,233.1,232,240.5,239.1c7.4,7.1,24.1,14.2,34.7,3.5c7.4-7.4,25.5-25.5,36.1-36.5c5-5.3,8.5-8.9,8.5-8.9
			c11-11,29-29,36.1-36.5c10.6-11,3.5-27.6-3.5-34.7C1151.6,555.6,1139.2,543.2,1121.2,525.1z M1045,637
			c-8.9-7.4-21.6-18.1-36.5-31.2c-29.8-26.2-68.4-62.3-105.9-99.5c-18.8-18.8-37.2-37.5-54.2-55.6c-8.5-9.2-16.6-17.7-24.4-26.2
			c-3.9-3.5-7.4-9.9-11-14.9c-2.1-5.3-4.3-10.6-5.7-15.6c-1.1-5-2.1-9.9-3.2-14.5c-0.4-4.6-1.1-8.9-1.4-13.1
			c-0.7-8.1-1.1-15.2-1.1-21.3c0-11.7,0.7-18.4,0.7-18.4s0.7,6.7,2.8,18.1c1.1,5.7,2.5,12.4,4.3,20.2c1.8,7.8,4.6,16.3,7.8,25.1
			c2.1,4.3,4.3,8.5,6.4,12.8c3.5,3.5,5,7.1,9.6,11c8.5,7.8,17,15.9,26.2,24.1c18.1,17,36.8,35.4,56,53.8
			C952.9,529,989,567.6,1015.6,597c13.5,14.9,23.7,27.6,31.2,36.5c7.4,8.9,11.7,14.2,11.7,14.2S1053.9,644.5,1045,637z"/>
		<g>
			<path class="st0" d="M1290.8,337h-68.7c-6.4,0-11.7,5.3-11.7,11.7v9.9h-32.2c-6.4,0-11.7,5.3-11.7,11.7v3.2
				c-18.8-1.8-25.1-5.3-42.1-15.2c-13.5-7.8-33.3-19.1-69.4-35.4c-0.4,0-0.4,0-0.4-0.4c-11.7-4.6-42.5-13.8-75.4,1.1l-45,16.3
				c6.7,5,13.1,11.3,18.1,18.1l35.1-12.8h0.4l0,0c0,0,0.4,0,0.4-0.4c24.8-11.3,48.5-4.6,57.7-1.1c35.1,15.6,53.5,26.6,67.3,34.4
				c18.8,11,28,16.3,53.8,18.4v93.2c-11,18.1-32.2,36.5-55.3,36.5c-4.3,0-8.1-0.4-12-0.7c-25.1-3.5-38.3-17.7-42.9-23.4
				c-0.4-0.4-1.1-1.8-1.4-1.8c-1.4-2.5-3.5-4.3-6.4-5.3l-92.1-31.2c-14.5-5.7-22.3-18.1-18.8-30.8c1.8-5.7,5.3-10.6,10.6-13.5
				c5.3-2.8,11.3-3.5,17-2.1l103.8,32.9c6,2.1,12.8-1.4,14.5-7.4c1.8-6-1.4-12.8-7.4-14.5c-4.6-1.4-9.6-2.8-14.2-4.6
				c-10.3-3.2-20.2-6.4-30.5-9.6c-9.6-3.2-19.1-6-28.7-9.2c-2.1-0.7-4.3-1.1-6-1.8c-2.5-1.1-4.6-2.5-7.1-3.2
				c-2.8-0.7-5.7-1.4-8.5-1.4c-11-1.1-22-2.1-33.3-2.1c-4.3-0.4-7.4,1.1-11.3,2.8c-8.1,4.6-14.9,11.7-18.8,19.8
				c-5,5.3-5.7,17.4-5,28c2.1,17.7,15.6,30.8,35.4,38.3h0.4l23,7.8c0,1.4,22.7,8.1,22,7.4l39,13.1c0-1.4,22.7,16.6,21.6,18.1
				c5.7,3.9,12.4,7.8,20.5,11l26.6,6c3.2,0.4,6.4,0.4,9.6,0.4c30.1,0,57-20.9,72.3-43.2h107c6.4,0,11.7-5.3,11.7-11.7V348.4
				C1302.1,342,1297.2,337,1290.8,337z M1210.4,482.6h-20.5V381.3h20.5V482.6z M1279.1,482.6h-45.7V360h45.7V482.6z"/>
		</g>
	</g>
	<g>
		<g>
			<path class="st0" d="M1125.4,450c0-0.7-0.4-1.4-0.7-2.1c-0.4-0.7-0.7-1.4-1.1-2.1c-0.4-0.7-1.1-1.4-1.4-1.8
				c-0.4-0.4-1.1-1.1-1.8-1.4c-0.7-0.4-1.4-0.7-2.1-1.1s-1.4-0.4-2.1-0.7c-1.4-0.4-3.2-0.4-4.6,0c-0.7,0-1.4,0.4-2.1,0.7
				c-0.7,0.4-1.4,0.7-2.1,1.1s-1.1,1.1-1.8,1.4c-0.7,0.4-1.1,1.1-1.4,1.8c-0.4,0.7-0.7,1.4-1.1,2.1c-0.4,0.7-0.7,1.4-0.7,2.1
				c0,0.7-0.4,1.4-0.4,2.1c0,0.7,0,1.4,0.4,2.1c0,0.7,0.4,1.4,0.7,2.1c0.4,0.7,0.7,1.4,1.1,2.1c0.4,0.7,1.1,1.4,1.4,1.8
				c0.4,0.4,1.1,1.1,1.8,1.4c0.7,0.4,1.4,0.7,2.1,1.1c0.7,0.4,1.4,0.4,2.1,0.7s1.4,0.4,2.1,0.4c0.7,0,1.4,0,2.1-0.4
				c0.7,0,1.4-0.4,2.1-0.7c0.7-0.4,1.4-0.7,2.1-1.1s1.1-1.1,1.8-1.4c0.7-0.4,1.1-1.1,1.4-1.8c0.4-0.7,0.7-1.4,1.1-2.1
				c0.4-0.7,0.7-1.4,0.7-2.1c0-0.7,0.4-1.4,0.4-2.1C1125.8,451.4,1125.8,450.7,1125.4,450z"/>
		</g>
	</g>
</g>
<circle class="st1" cx="960" cy="540.3" r="531.3"/>
</svg>
