<?xml version="1.0" encoding="utf-8"?>
<!-- Generator: Adobe Illustrator 23.1.0, SVG Export Plug-In . SVG Version: 6.00 Build 0)  -->
<svg version="1.1" id="圖層_1" xmlns="http://www.w3.org/2000/svg" xmlns:xlink="http://www.w3.org/1999/xlink" x="0px" y="0px"
	 viewBox="0 0 1920 1080" style="enable-background:new 0 0 1920 1080;" xml:space="preserve">
<style type="text/css">
	.st0{fill:#FFFFFF;}
	.st1{fill:none;stroke:#FFFFFF;stroke-width:16;stroke-miterlimit:10;}
</style>
<g>
	<path class="st0" d="M1188.5,388.8c-6-4.3-9.5-11.2-9.5-18.6V258.6c0-6.3-5.1-11.4-11.4-11.4h-58.7c-6.3,0-11.4,5.1-11.4,11.4
		v111.6c0,7.3-3.6,14.3-9.5,18.6c-40.4,29-64.5,76-64.5,125.8v13.6c-2-4.8-4.1-9.5-6.3-14.1c-17.6-36.6-27-77.5-27-118.2v-125
		c0-13-10.6-23.7-23.7-23.7h-45.8c-13,0-23.7,10.6-23.7,23.7V396c0,40.6-9.3,81.4-26.9,118.1v0.1c-2.2,4.6-4.3,9.2-6.2,14v-42.9
		c0-40.6-22.6-77.5-58.2-96V258.6c0-6.3-5.1-11.4-11.4-11.4h-57.5c-6.3,0-11.4,5.1-11.4,11.4v130.5c-35.7,18.6-58.3,55.5-58.3,96.1
		V822c0,6.3,5.1,11.4,11.4,11.4h174c3,0,5.8-1.2,7.8-3.1c4.3,2,9,3.1,14,3.1h139c6.8,0,13.1-2.1,18.3-5.5c4,3.4,9.2,5.5,14.9,5.5
		h183.9c12.6,0,22.9-10.3,22.9-22.9v-296C1253,464.8,1228.9,417.8,1188.5,388.8z M1120.3,361.7v-47.9h35.8v47.9H1120.3z
		 M1156.1,270.1V291h-35.8v-20.9H1156.1z M919.9,396v-70.8h47.3v70.7c0,15.2,1.2,30.3,3.6,45.3h-54.4
		C918.7,426.2,919.9,411.1,919.9,396z M919.9,270.9c0-0.4,0.4-0.8,0.8-0.8h45.8c0.4,0,0.7,0.4,0.7,0.8v31.4h-47.3V270.9z
		 M782.6,270.1V344H748v-73.9H782.6z M741.1,406.8c4.2-1.8,6.9-6,6.9-10.5v-29.4h34.6v29.4c0,4.6,2.7,8.7,6.9,10.5
		c31.2,13.6,51.4,44.3,51.4,78.3v43.7h-82.4c-6.3,0-11.4,5.1-11.4,11.4c0,6.3,5.1,11.4,11.4,11.4h82.4v166.9H689.7V485.1
		C689.7,451.1,709.9,420.4,741.1,406.8z M840.9,810.5H689.7v-68.9h151.1L840.9,810.5L840.9,810.5z M1013.1,810.5h-139
		c-5.7,0-10.3-4.6-10.3-10.3V642c0-40.6,9.3-81.4,26.9-118.1v-0.1c9.1-19.1,16.2-39.1,21.1-59.8h63.4c4.9,20.6,12,40.8,21.2,59.9
		c17.6,36.6,27,77.5,27,118.1v158.1C1023.4,805.9,1018.8,810.5,1013.1,810.5z M1230.2,810.5h-183.9v-296c0-42.4,20.5-82.5,55-107.2
		c7.9-5.7,13.7-13.7,16.7-22.8h40.4c3,9.1,8.8,17.1,16.7,22.8c34.4,24.7,55,64.8,55,107.2L1230.2,810.5L1230.2,810.5z"/>
	<path class="st0" d="M716.6,551.7c3,0,6-1.2,8.1-3.4c2.1-2.1,3.4-5.1,3.4-8.1s-1.2-6-3.4-8.1c-2.1-2.1-5.1-3.4-8.1-3.4
		s-6,1.2-8.1,3.4c-2.1,2.1-3.4,5.1-3.4,8.1s1.2,6,3.4,8.1C710.6,550.5,713.6,551.7,716.6,551.7z"/>
	<path class="st0" d="M765.3,678.3c23.8,0,43.1-19.3,43.1-43.1s-19.3-43.1-43.1-43.1c-23.8,0-43.1,19.3-43.1,43.1
		S741.6,678.3,765.3,678.3z M765.3,615c11.1,0,20.2,9.1,20.2,20.2c0,11.1-9.1,20.2-20.2,20.2c-11.1,0-20.2-9.1-20.2-20.2
		S754.2,615,765.3,615z"/>
	<path class="st0" d="M1193.5,620.4c-3,0-6,1.2-8.1,3.4c-2.1,2.1-3.4,5.1-3.4,8.1s1.2,6,3.4,8.1c2.1,2.1,5.1,3.4,8.1,3.4
		s6-1.2,8.1-3.4c2.1-2.1,3.4-5.1,3.4-8.1s-1.2-6-3.4-8.1C1199.5,621.6,1196.6,620.4,1193.5,620.4z"/>
	<path class="st0" d="M1071.5,551.7V712c0,6.3,5.1,11.4,11.4,11.4h110.6c6.3,0,11.4-5.1,11.4-11.4v-37.8c0-6.3-5.1-11.4-11.4-11.4
		s-11.4,5.1-11.4,11.4v26.3h-87.7V563.1h87.7v20.7c0,6.3,5.1,11.4,11.4,11.4c6.3,0,11.4-5.1,11.4-11.4v-32.2
		c0-6.3-5.1-11.4-11.4-11.4h-110.6C1076.6,540.3,1071.5,545.4,1071.5,551.7z"/>
	<path class="st0" d="M989,629.6h-90.8c-6.3,0-11.4,5.1-11.4,11.4v119.1c0,6.3,5.1,11.4,11.4,11.4H989c6.3,0,11.4-5.1,11.4-11.4
		v-119C1000.4,634.7,995.3,629.6,989,629.6z M977.6,748.7h-67.9v-96.2h67.9V748.7z"/>
</g>
<circle class="st1" cx="960" cy="540.3" r="531.3"/>
</svg>
