<?xml version="1.0" encoding="utf-8"?>
<!-- Generator: Adobe Illustrator 23.1.0, SVG Export Plug-In . SVG Version: 6.00 Build 0)  -->
<svg version="1.1" id="圖層_1" xmlns="http://www.w3.org/2000/svg" xmlns:xlink="http://www.w3.org/1999/xlink" x="0px" y="0px"
	 viewBox="0 0 1920 1080" style="enable-background:new 0 0 1920 1080;" xml:space="preserve">
<style type="text/css">
	.st0{fill:#FFFFFF;}
	.st1{fill:none;stroke:#FFFFFF;stroke-width:16;stroke-miterlimit:10;}
</style>
<g>
	<g>
		<path class="st0" d="M1305.8,727.6h-5.6V477.5c23.2-15.8,37-41.8,37-69.8c0-2.2-0.6-4.5-1.7-6.4l-68.6-120.1
			c-5.6-9.8-16-15.8-27.3-15.8H835.7c-11.2,0-21.7,6.1-27.3,15.8l-68.6,120.1c-1.1,1.9-1.7,4.2-1.7,6.4c0,28.1,13.8,54,37,69.8
			v250.1h-5.6c-7.1,0-12.9,5.8-12.9,12.9c0,7.1,5.8,12.9,12.9,12.9h536.2c7.1,0,12.9-5.8,12.9-12.9
			C1318.7,733.4,1312.9,727.6,1305.8,727.6z M1228.2,707.2v20.4h-85.1v-20.4H1228.2z M1228.2,531.6v149.9h-85.1V531.6H1228.2z
			 M1241.1,505.8h-110.9c-7.1,0-12.9,5.8-12.9,12.9v209H801V489.4c7.1,1.9,14.4,2.9,21.7,2.9c29.4,0,56.2-15,71.7-39.7
			c15.4,24.7,42.2,39.7,71.7,39.7c29.4,0,56.2-15,71.7-39.7c15.4,24.7,42.2,39.7,71.7,39.7c29.4,0,56.2-15,71.7-39.7
			c15.4,24.7,42.2,39.7,71.7,39.7c7.4,0,14.7-1,21.7-2.9v238.2H1254v-209C1254,511.5,1248.2,505.8,1241.1,505.8z M1109.3,466.4
			c-27.5,0-51.3-19.4-57.3-45.8h114.6C1160.7,447.1,1136.8,466.4,1109.3,466.4z M966,466.4c-27.5,0-51.3-19.4-57.3-45.8h114.6
			C1017.4,447.1,993.5,466.4,966,466.4z M1195.4,420.6h55c7.1,0,12.9-5.8,12.9-12.9s-5.8-12.9-12.9-12.9H825.1
			c-7.1,0-12.9,5.8-12.9,12.9c0,7.1,5.8,12.9,12.9,12.9h55c-6,26.5-29.8,45.8-57.3,45.8s-51.4-19.4-57.3-45.8H788
			c7.1,0,12.9-5.8,12.9-12.9s-5.8-12.9-12.9-12.9h-14.7L830.9,294c1-1.7,2.8-2.8,4.9-2.8h403.8c2,0,3.9,1.1,4.9,2.8l57.6,100.8
			h-14.7c-7.1,0-12.9,5.8-12.9,12.9c0,7.1,5.8,12.9,12.9,12.9h22.6c-6,26.5-29.8,45.8-57.3,45.8
			C1225.1,466.4,1201.3,447.1,1195.4,420.6z"/>
		<path class="st0" d="M1083.9,505.8H834.3c-7.1,0-12.9,5.8-12.9,12.9v175.7c0,7.1,5.8,12.9,12.9,12.9h249.6
			c7.1,0,12.9-5.8,12.9-12.9V518.7C1096.8,511.5,1091.1,505.8,1083.9,505.8z M1071,531.6v149.9H847.2V531.6H1071z"/>
	</g>
	<g>
		<g>
			<circle class="st0" cx="656.5" cy="442.5" r="34.1"/>
			<path class="st0" d="M668.4,492.9c-8.5-1.7-17.7-1.7-26.1,0.3c-56.6,6.6-75,72.2-69.8,122.2c2.3,21.6,36.3,21.9,34,0
				c-1.9-18.2-1.1-45.7,8.6-65.2c0,23.8,0,47.5,0,71.2c0,0.9,0.1,1.6,0.1,2.4c0,0.4-0.1,0.7-0.1,1.1c0,56.5-0.1,113.1-2.4,169.5
				c-1,25.1,37.9,25,38.9,0c1.8-44.3,2.3-88.6,2.4-132.9c1.8,0.1,3.7,0.1,5.5,0c0.1,44.3,0.6,88.6,2.4,132.9c1,25,40,25.1,38.9,0
				c-2.3-56.5-2.4-113-2.4-169.5c0-1.8-0.2-3.4-0.6-4.9c-0.1-24.5-1-49.1-0.7-73.6c11.6,19.6,12.6,49.6,10.6,69
				c-2.3,21.8,31.8,21.6,34,0C747.1,564.3,727.9,497.1,668.4,492.9z"/>
		</g>
	</g>
</g>
<circle class="st1" cx="960" cy="540.3" r="531.3"/>
</svg>
