<?xml version="1.0" encoding="utf-8"?>
<!-- Generator: Adobe Illustrator 23.1.0, SVG Export Plug-In . SVG Version: 6.00 Build 0)  -->
<svg version="1.1" id="圖層_1" xmlns="http://www.w3.org/2000/svg" xmlns:xlink="http://www.w3.org/1999/xlink" x="0px" y="0px"
	 viewBox="0 0 1920 1080" style="enable-background:new 0 0 1920 1080;" xml:space="preserve">
<style type="text/css">
	.st0{fill:#FFFFFF;stroke:#FFFFFF;stroke-miterlimit:10;}
	.st1{fill:none;stroke:#FFFFFF;stroke-width:15.9998;stroke-miterlimit:9.9999;}
</style>
<g>
	<g>
		<g>
			<path class="st0" d="M848.8,374.6c-6,0-10.6,5-10.6,10.6c0,13.1-10.6,23.7-23.7,23.7c-13.1,0-23.7-10.6-23.7-23.7
				s10.6-23.7,23.7-23.7c6,0,10.6-5,10.6-10.6c0-5.6-5-10.6-10.6-10.6c-24.8,0-45.4,20.2-45.4,45.4s20.2,45.4,45.4,45.4
				s45.4-20.2,45.4-45.4C859.5,379.5,854.9,374.6,848.8,374.6z"/>
		</g>
	</g>
	<g>
		<g>
			<path class="st0" d="M848.8,500.7c-6,0-10.6,5-10.6,10.6c0,13.1-10.6,23.7-23.7,23.7c-13.1,0-23.7-10.6-23.7-23.6
				s10.6-23.7,23.7-23.7c6,0,10.6-5,10.6-10.6c0-5.6-5-10.6-10.6-10.6c-24.8,0-45.4,20.2-45.4,45.4c0,25.2,20.2,45.4,45.4,45.4
				s45.4-20.2,45.4-45.4C859.5,505.6,854.9,500.7,848.8,500.7z"/>
		</g>
	</g>
	<g>
		<g>
			<path class="st0" d="M974.9,523.7h-80.4c-6,0-10.6,5-10.6,10.6s5,10.6,10.6,10.6h80.4c6,0,10.6-5,10.6-10.6
				C985.6,528.3,980.9,523.7,974.9,523.7z"/>
		</g>
	</g>
	<g>
		<g>
			<path class="st0" d="M974.9,477.7h-80.4c-6,0-10.6,5-10.6,10.6s5,10.6,10.6,10.6h80.4c6,0,10.6-5,10.6-10.6
				S980.9,477.7,974.9,477.7z"/>
		</g>
	</g>
	<g>
		<g>
			<path class="st0" d="M951.9,649.7h-57.4c-6,0-10.6,5-10.6,10.6s5,10.6,10.6,10.6h57.4c6,0,10.6-5,10.6-10.6
				S957.9,649.7,951.9,649.7z"/>
		</g>
	</g>
	<g>
		<g>
			<path class="st0" d="M974.9,604.1h-80.4c-6,0-10.6,5-10.6,10.6s5,10.6,10.6,10.6h80.4c6,0,10.6-5,10.6-10.6
				S980.9,604.1,974.9,604.1z"/>
		</g>
	</g>
	<g>
		<g>
			<path class="st0" d="M1078,397.6H894.5c-6,0-10.6,5-10.6,10.6s5,10.6,10.6,10.6H1078c6,0,10.6-5,10.6-10.6S1084,397.6,1078,397.6
				z"/>
		</g>
	</g>
	<g>
		<g>
			<path class="st0" d="M1032.3,351.6H894.9c-6,0-10.6,5-10.6,10.6c0,5.6,5,10.6,10.6,10.6h137.4c6,0,10.6-5,10.6-10.6
				C1042.9,356.5,1038.3,351.6,1032.3,351.6z"/>
		</g>
	</g>
	<g>
		<g>
			<path class="st0" d="M848.8,626.8c-6,0-10.6,5-10.6,10.6c0,13.1-10.6,23.7-23.7,23.7c-13.1,0-23.7-10.6-23.7-23.7
				s10.6-23.7,23.7-23.7c6,0,10.6-5,10.6-10.6s-5-10.6-10.6-10.6c-24.8,0-45.4,20.2-45.4,45.4s20.2,45.4,45.4,45.4
				s45.4-20.2,45.4-45.4C859.5,631.7,854.9,626.8,848.8,626.8z"/>
		</g>
	</g>
	<g>
		<g>
			<path class="st0" d="M1124.1,237.2H734.1c-18.4,0-33.6,15.3-33.6,33.6v481.6c0,18.4,15.3,33.6,33.6,33.6h194.8
				c6,0,10.6-5,10.6-10.6c0-6-5-10.6-10.6-10.6H734.1c-6.8,0-12-5.3-12-12V271.3c0-6.8,5.3-12,12-12h389.9c6.8,0,12,5.3,12,12v319.5
				c0,6,5,10.6,10.6,10.6s10.6-5,10.6-10.6V270.7C1157.7,252.1,1142.4,237.2,1124.1,237.2z"/>
		</g>
	</g>
	<g>
		<g>
			<path class="st0" d="M1232.4,644.5c-9.9-1.1-19.8,1.7-28,7.7c-6.4-10.6-17-18.1-29.4-19.4c-9.9-1-19.8,1.8-28,7.8
				c-6.4-10.6-17-18.1-29.4-19.4c-7.8-0.7-15.3,0.7-21.9,4.3V488.7c0-11-4.6-21.6-13.1-29.4c-8.1-7.4-19.4-11-30.5-9.9
				c-19.8,2.1-35.5,19.8-35.5,40.7v137.3L985.2,659c-16.7,16.7-23.7,40.7-18.1,63.8l24.1,102c9.5,41.5,46,70.2,88.5,70.2h97
				c50.3,0,91-40.7,91-91V685.2C1267.8,664.6,1252.3,646.6,1232.4,644.5z M1246.5,804.1c0,38.2-31.2,69.4-69.4,69.4h-97
				c-32.6,0-60.2-21.9-67.7-53.5l-24.1-102c-3.5-15.9,1-32.2,12.4-43.6l16.3-16.3v37.2c0,6,5,10.6,10.6,10.6c5.6,0,10.6-5,10.6-10.6
				V490.6c0-9.9,7.1-18.4,15.9-19.4c5.3-0.4,9.9,1,13.8,4.6c3.9,3.5,6,8.1,6,13.4v189.2c0,6,5,10.6,10.6,10.6
				c5.6,0,10.6-5,10.6-10.6v-17.3c0-5,2.1-9.9,6-13.4c3.9-3.5,8.9-5,13.8-4.6c8.9,1,15.9,9.5,15.9,19.4v26.9c0,6,5,10.6,10.6,10.6
				c5.6,0,10.6-5,10.6-10.6V672c0-5,2.1-9.9,6-13.4c3.9-3.5,8.9-5,13.8-4.6c8.9,1,15.9,9.5,15.9,19.4v26.9c0,6,5,10.6,10.6,10.6
				c5.6,0,10.6-5,10.6-10.6v-17.3c0-5,2.1-9.9,6-13.4c3.9-3.5,8.9-5,13.8-4.6c8.9,1,15.9,9.5,15.9,19.4L1246.5,804.1L1246.5,804.1z"
				/>
		</g>
	</g>
</g>
<ellipse class="st1" cx="960" cy="540.3" rx="531.3" ry="531.3"/>
</svg>
