<svg id="Layer_5" enable-background="new 0 0 64 64" height="512" viewBox="0 0 64 64" width="512" xmlns="http://www.w3.org/2000/svg"><path d="m62 52v4c0 3.31-2.69 6-6 6h-48c-3.31 0-6-2.69-6-6v-4h21v2c0 2.21 1.79 4 4 4h10c2.21 0 4-1.79 4-4v-2z" fill="#969faa"/><path d="m41 52v2c0 2.21-1.79 4-4 4h-10c-2.21 0-4-1.79-4-4v-2z" fill="#fcd770"/><path d="m2 20h60v32h-60z" fill="#ccd1d9"/><path d="m58 43c0 .34-.03.68-.1 1-.46 2.28-2.48 4-4.9 4s-4.44-1.72-4.9-4c-.07-.32-.1-.66-.1-1 0-2.76 2.24-5 5-5s5 2.24 5 5z" fill="#fcd770"/><path d="m57 20c.63.83 1 1.87 1 3 0 2.76-2.24 5-5 5s-5-2.24-5-5c0-1.13.37-2.17 1-3 .91-1.21 2.37-2 4-2s3.09.79 3.99 2z" fill="#fcd770"/><path d="m58 33c0 1.13-.37 2.17-1 3-.91 1.21-2.37 2-4 2s-3.09-.79-4-2c-.63-.83-1-1.87-1-3 0-2.76 2.24-5 5-5s5 2.24 5 5z" fill="#ffeaa7"/><g fill="#b27946"><path d="m44 28c.01.42-.08.84-.26 1.24-.08.17-.49 1.02-1.46 2.06-.97 1.05-2.5 2.3-4.81 3.27-3.08 1.29-5.97 1.43-7.08 1.43-.18 0-.32 0-.42-.01-.09 0-.14-.01-.16-.01-1.64-.09-2.9-1.52-2.8-3.16.09-1.58 1.39-2.82 2.96-2.83.1.01.24.01.43.01 1.1 0 3.99-.14 7.07-1.43 2.31-.97 3.84-2.22 4.81-3.27h.01c1.07.51 1.7 1.58 1.71 2.7z"/><path d="m42.27 13.28c1.48.7 2.14 2.47 1.47 3.96-.08.17-.49 1.02-1.46 2.06-.97 1.05-2.5 2.3-4.81 3.27-3.07 1.29-5.97 1.43-7.07 1.43-.19 0-.33 0-.43-.01-.09 0-.14-.01-.16-.01-1.63-.09-2.9-1.52-2.8-3.16.02-.27.07-.53.15-.77.39-1.2 1.52-2.06 2.83-2.06l.37.01c.59 0 2.66-.07 4.78-.96 2.43-1.02 3.14-2.3 3.17-2.36.48-1 1.55-1.67 2.7-1.67.43 0 .86.09 1.26.27z"/><path d="m43.22 20c.78.86 1.02 2.13.52 3.24-.08.17-.49 1.02-1.46 2.06-.97 1.05-2.5 2.3-4.81 3.27-3.08 1.29-5.97 1.43-7.07 1.43-.19 0-.33 0-.43-.01-.09 0-.14-.01-.16-.01-1.24-.07-2.28-.92-2.66-2.04-.11-.35-.16-.73-.14-1.12.09-1.58 1.39-2.82 2.96-2.83.1.01.24.01.43.01 1.1 0 4-.14 7.07-1.43 2.31-.97 3.84-2.22 4.81-3.27h.01c.37.17.68.41.93.7z"/><path d="m43.3 36c-.22.35-.56.81-1.02 1.3-.97 1.05-2.5 2.3-4.81 3.27-3.08 1.29-5.97 1.43-7.08 1.43-.18 0-.32 0-.42-.01-.09 0-.14-.01-.16-.01-1.64-.09-2.9-1.52-2.8-3.16.06-.99.59-1.84 1.36-2.34.46-.31 1.01-.48 1.6-.49.1.01.24.01.42.01 1.11 0 4-.14 7.08-1.43 2.31-.97 3.84-2.22 4.81-3.27 1.48.7 2.13 2.46 1.46 3.94-.04.09-.17.37-.44.76z"/><path d="m42.28 37.3c1.48.7 2.13 2.46 1.45 3.94-.09.2-.66 1.38-2.1 2.7-.96.9-2.31 1.85-4.16 2.63-3.08 1.29-5.97 1.43-7.08 1.43-.34 0-.54-.01-.58-.02-1.64-.09-2.9-1.52-2.8-3.16.02-.27.07-.52.15-.77.39-1.19 1.51-2.05 2.81-2.06.1.01.24.01.42.01 1.11 0 4-.14 7.08-1.43 2.31-.97 3.84-2.22 4.81-3.27z"/></g><path d="m21.87 27.01c.09.32.13.65.13.99 0 1.1-.45 2.1-1.17 2.83-.73.72-1.73 1.17-2.83 1.17h-8c-2.21 0-4-1.79-4-4 0-.34.04-.67.13-.99 1.87.08 1.91 1.99 3.87 1.99 1.99 0 1.99-2 3.99-2s2 2 4.01 2c1.96 0 2-1.91 3.87-1.99z" fill="#ecc19c"/><path d="m18 24c1.87 0 3.43 1.28 3.87 3.01-1.87.08-1.91 1.99-3.87 1.99-2.01 0-2.01-2-4.01-2s-2 2-3.99 2c-1.96 0-2-1.91-3.87-1.99.18-.71.54-1.34 1.04-1.84.73-.72 1.73-1.17 2.83-1.17z" fill="#ff826e"/><path d="m21.87 19.01c.09.32.13.65.13.99 0 1.1-.45 2.1-1.17 2.83-.73.72-1.73 1.17-2.83 1.17h-8c-2.21 0-4-1.79-4-4 0-.34.04-.67.13-.99 1.87.08 1.91 1.99 3.87 1.99 1.99 0 1.99-2 3.99-2s2 2 4.01 2c1.96 0 2-1.91 3.87-1.99z" fill="#ecc19c"/><path d="m18 16c1.87 0 3.43 1.28 3.87 3.01-1.87.08-1.91 1.99-3.87 1.99-2.01 0-2.01-2-4.01-2s-2 2-3.99 2c-1.96 0-2-1.91-3.87-1.99.18-.71.54-1.34 1.04-1.84.73-.72 1.73-1.17 2.83-1.17z" fill="#ff826e"/><path d="m21.87 35.01c.09.32.13.65.13.99 0 1.1-.45 2.1-1.17 2.83-.73.72-1.73 1.17-2.83 1.17h-8c-2.21 0-4-1.79-4-4 0-.34.04-.67.13-.99 1.87.08 1.91 1.99 3.87 1.99 1.99 0 1.99-2 3.99-2s2 2 4.01 2c1.96 0 2-1.91 3.87-1.99z" fill="#ecc19c"/><path d="m18 32c1.87 0 3.43 1.28 3.87 3.01-1.87.08-1.91 1.99-3.87 1.99-2.01 0-2.01-2-4.01-2s-2 2-3.99 2c-1.96 0-2-1.91-3.87-1.99.18-.71.54-1.34 1.04-1.84.73-.72 1.73-1.17 2.83-1.17z" fill="#ff826e"/><path d="m21.87 43.01c.09.32.13.65.13.99 0 1.1-.45 2.1-1.17 2.83-.73.72-1.73 1.17-2.83 1.17h-8c-2.21 0-4-1.79-4-4 0-.34.04-.67.13-.99 1.87.08 1.91 1.99 3.87 1.99 1.99 0 1.99-2 3.99-2s2 2 4.01 2c1.96 0 2-1.91 3.87-1.99z" fill="#ecc19c"/><path d="m18 40c1.87 0 3.43 1.28 3.87 3.01-1.87.08-1.91 1.99-3.87 1.99-2.01 0-2.01-2-4.01-2s-2 2-3.99 2c-1.96 0-2-1.91-3.87-1.99.18-.71.54-1.34 1.04-1.84.73-.72 1.73-1.17 2.83-1.17z" fill="#ff826e"/><path d="m57.46 19c-.887-.988-2.094-1.679-3.46-1.91v-16.09h-2v16.09c-1.365.23-2.572.921-3.46 1.91h-4.721c.517-.7.768-1.217.829-1.351.899-1.985.02-4.35-1.961-5.272-.531-.247-1.097-.372-1.682-.372-1.533 0-2.946.882-3.572 2.195-.005.008-.365.61-1.434 1.276v-14.476h-2v15.398c-1.665.551-3.171.6-3.623.6l-.384-.007c-1.466 0-2.744.81-3.437 2.009h-3.657c-.465-2.279-2.484-4-4.899-4h-3v-14h-2v14h-3c-2.414 0-4.434 1.721-4.899 4h-4.1v37c0 3.86 3.14 7 7 7h48c3.86 0 7-3.14 7-7v-37zm3.54 2v6h-3.54c.954-1.063 1.54-2.462 1.54-4 0-.702-.128-1.373-.35-2zm-37 32h16v1c0 1.654-1.346 3-3 3h-10c-1.654 0-3-1.346-3-3zm-21-2v-6h2.101c.465 2.279 2.484 4 4.899 4h8c2.414 0 4.434-1.721 4.899-4h3.121c.004 2.092 1.621 3.856 3.724 3.982.041.003.269.018.649.018 1.163 0 4.219-.147 7.462-1.51 1.748-.735 3.077-1.626 4.082-2.49h5.412c.826 2.327 3.043 4 5.65 4s4.824-1.673 5.65-4h2.351v6zm2.101-22c.25 1.226.96 2.278 1.93 3-.97.722-1.68 1.774-1.93 3h-2.101v-6zm4.899-4h8c1.044 0 1.963.538 2.501 1.349-.522.266-.901.635-1.21.943-.491.491-.731.708-1.294.708s-.804-.217-1.295-.708c-.547-.545-1.294-1.292-2.709-1.292-1.414 0-2.161.748-2.706 1.293-.49.49-.73.707-1.291.707s-.801-.217-1.291-.707c-.308-.308-.686-.677-1.207-.943.538-.812 1.457-1.35 2.502-1.35zm-2.952-4.527c.077.072.153.143.243.234.545.545 1.292 1.293 2.705 1.293s2.161-.748 2.706-1.293c.49-.49.73-.707 1.291-.707.563 0 .804.217 1.294.708.547.545 1.295 1.292 2.71 1.292s2.162-.747 2.708-1.292c.092-.092.17-.165.248-.238-.228 1.43-1.459 2.53-2.953 2.53h-8c-1.492 0-2.724-1.098-2.952-2.527zm19.5 8.527c.219.376.506.704.832.99-.78.684-1.304 1.659-1.37 2.767-.048.814.154 1.586.537 2.243h-3.649c-.25-1.226-.96-2.278-1.93-3 .97-.722 1.68-1.774 1.93-3zm3.385-4.008c.047.002.106.003.17.005.011 0 .019.001.031.001.077.001.164.002.262.002 1.163 0 4.219-.147 7.462-1.51 2.028-.852 3.494-1.914 4.54-2.901.577.573.778 1.462.427 2.237-.055.121-1.39 2.991-5.743 4.821-2.908 1.221-5.645 1.353-6.687 1.353-.301 0-.482-.011-.521-.013-1.093-.066-1.93-1.014-1.866-2.112.062-1.048.928-1.875 1.925-1.883zm14.714 4.657c.096-.212.162-.43.218-.649h3.675c-.954 1.063-1.54 2.462-1.54 4 0 .702.128 1.373.35 2h-2.485c.361-1.408-.093-2.896-1.131-3.884.578-.761.85-1.325.913-1.467zm12.353 3.351c0 2.206-1.794 4-4 4s-4-1.794-4-4 1.794-4 4-4 4 1.794 4 4zm0 10c0 2.206-1.794 4-4 4s-4-1.794-4-4 1.794-4 4-4 4 1.794 4 4zm-10 0h-3.183c.517-.7.768-1.217.829-1.351.714-1.577.286-3.391-.913-4.534.031-.04.055-.076.084-.115h4.723c.34.379.724.717 1.15 1-1.619 1.076-2.69 2.914-2.69 5zm-20.445 0h-3.656c-.25-1.226-.96-2.278-1.93-3 .97-.722 1.68-1.774 1.93-3h3.657c-.304.524-.508 1.115-.546 1.757-.075 1.281.474 2.447 1.369 3.233-.328.288-.603.629-.824 1.01zm-16.555-2h8c1.044 0 1.963.538 2.501 1.349-.522.266-.901.635-1.21.943-.491.491-.731.708-1.294.708s-.804-.217-1.295-.708c-.547-.545-1.294-1.292-2.709-1.292-1.414 0-2.161.748-2.706 1.293-.49.49-.73.707-1.291.707s-.801-.217-1.291-.707c-.308-.308-.686-.677-1.207-.943.538-.812 1.457-1.35 2.502-1.35zm-2.952-4.527c.077.072.153.143.243.234.545.545 1.292 1.293 2.705 1.293s2.161-.748 2.706-1.293c.49-.49.73-.707 1.291-.707.563 0 .804.217 1.294.708.547.545 1.295 1.292 2.71 1.292s2.162-.747 2.708-1.292c.092-.092.17-.165.248-.238-.228 1.43-1.459 2.53-2.953 2.53h-8c-1.492 0-2.724-1.098-2.952-2.527zm2.952-3.473h8c1.044 0 1.963.538 2.501 1.349-.522.266-.901.635-1.21.943-.491.491-.731.708-1.294.708s-.804-.217-1.295-.708c-.547-.545-1.294-1.292-2.709-1.292-1.414 0-2.161.748-2.706 1.293-.49.49-.73.707-1.291.707s-.801-.217-1.291-.707c-.308-.308-.686-.677-1.207-.943.538-.812 1.457-1.35 2.502-1.35zm-2.952-4.527c.077.072.153.143.243.234.545.545 1.292 1.293 2.705 1.293s2.161-.748 2.706-1.293c.49-.49.73-.707 1.291-.707.563 0 .804.217 1.294.708.547.545 1.295 1.292 2.71 1.292s2.162-.747 2.708-1.292c.092-.092.17-.165.248-.238-.228 1.43-1.459 2.53-2.953 2.53h-8c-1.492 0-2.724-1.098-2.952-2.527zm.243 16.234c.545.545 1.292 1.293 2.705 1.293s2.161-.748 2.706-1.293c.49-.49.73-.707 1.291-.707.563 0 .804.217 1.294.708.547.545 1.295 1.292 2.71 1.292s2.162-.747 2.708-1.292c.092-.092.17-.165.248-.238-.228 1.43-1.459 2.53-2.953 2.53h-8c-1.492 0-2.724-1.098-2.952-2.527.077.072.152.143.243.234zm35.106-12.118c.577.573.778 1.462.427 2.237-.055.121-1.39 2.991-5.743 4.821-2.908 1.221-5.645 1.353-6.687 1.353-.301 0-.482-.011-.521-.013-1.093-.066-1.93-1.014-1.866-2.111.063-1.048.929-1.875 1.926-1.884.047.002.106.003.17.005.011 0 .019.001.031.001.076.001.163.002.261.002 1.163 0 4.219-.147 7.462-1.51 2.028-.852 3.494-1.914 4.54-2.901zm-12.466 10.403c.047.002.106.003.17.005.011 0 .019.001.031.001.077.001.164.002.262.002 1.163 0 4.219-.147 7.462-1.51 2.028-.852 3.494-1.914 4.54-2.901.577.573.778 1.462.427 2.237-.055.121-1.39 2.991-5.743 4.821-2.908 1.221-5.645 1.353-6.687 1.353-.301 0-.482-.011-.521-.013-1.093-.066-1.93-1.014-1.866-2.112.062-1.048.928-1.875 1.925-1.883zm12.894-14.166c-.055.121-1.39 2.991-5.743 4.821-2.908 1.221-5.645 1.353-6.687 1.353-.301 0-.482-.011-.521-.013-1.093-.066-1.93-1.014-1.866-2.112.062-1.048.928-1.875 1.925-1.883.048.002.107.003.172.005.01 0 .018.001.029.001.076.001.163.002.261.002 1.163 0 4.219-.147 7.462-1.51 2.028-.852 3.494-1.914 4.54-2.901.577.572.778 1.462.428 2.237zm-37.724 8.174c.25 1.226.96 2.278 1.93 3-.97.722-1.68 1.774-1.93 3h-2.101v-6zm53.899 6c0-2.086-1.071-3.924-2.69-5 .426-.283.81-.621 1.15-1h3.54v6zm-.35-8c.223-.627.35-1.298.35-2 0-1.538-.586-2.937-1.54-4h3.54v6zm-5.65-16c2.206 0 4 1.794 4 4s-1.794 4-4 4-4-1.794-4-4 1.794-4 4-4zm-4.46 8h-3.694c-.189-.713-.568-1.366-1.112-1.885.578-.76.849-1.325.913-1.466.39-.861.426-1.792.199-2.649h2.503c-.221.627-.349 1.298-.349 2 0 1.538.586 2.937 1.54 4zm-18.567-8.009.384.007c.634 0 2.882-.075 5.175-1.039 2.639-1.109 3.509-2.527 3.679-2.844.441-.92 1.687-1.364 2.633-.924.991.461 1.432 1.643.982 2.635-.055.121-1.39 2.991-5.743 4.821-2.908 1.221-5.645 1.353-6.687 1.353-.301 0-.482-.011-.521-.013-1.093-.066-1.93-1.014-1.866-2.111.062-1.058.934-1.885 1.964-1.885zm-2.592 4.999c-.781.684-1.304 1.659-1.37 2.767-.005.083.01.161.01.243h-3.123c-.25-1.226-.96-2.278-1.93-3 .97-.722 1.68-1.774 1.93-3h3.123c.004 1.185.523 2.255 1.36 2.99zm-17.381-6.99h8c1.044 0 1.963.538 2.501 1.349-.522.266-.901.635-1.21.943-.491.491-.731.708-1.294.708s-.804-.217-1.295-.708c-.547-.545-1.294-1.292-2.709-1.292-1.414 0-2.161.748-2.706 1.293-.49.49-.73.707-1.291.707s-.801-.217-1.291-.707c-.308-.308-.686-.677-1.207-.943.538-.812 1.457-1.35 2.502-1.35zm-4.899 4c.25 1.226.96 2.278 1.93 3-.97.722-1.68 1.774-1.93 3h-2.101v-6zm50.899 40h-48c-2.757 0-5-2.243-5-5v-3h19v1c0 2.757 2.243 5 5 5h10c2.757 0 5-2.243 5-5v-1h19v3c0 2.757-2.243 5-5 5z"/></svg>