<?xml version="1.0" encoding="iso-8859-1"?>
<!-- Generator: Adobe Illustrator 19.0.0, SVG Export Plug-In . SVG Version: 6.00 Build 0)  -->
<svg version="1.1" id="Capa_1" xmlns="http://www.w3.org/2000/svg" xmlns:xlink="http://www.w3.org/1999/xlink" x="0px" y="0px"
	 viewBox="0 0 472.393 472.393" style="enable-background:new 0 0 472.393 472.393;" xml:space="preserve">
<path style="fill:#FDC9A6;" d="M180.196,120.393l-32-32l53.328-60c5.988-6.742,5.686-16.982-0.688-23.36l-0.056-0.056
	c-6.662-6.647-17.452-6.634-24.098,0.029c-0.165,0.166-0.327,0.335-0.486,0.507l-60.448,65.944
	c-8.68,9.471-8.363,24.098,0.72,33.184l41.328,39.752L180.196,120.393z"/>
<path style="fill:#F6BB92;" d="M296.364,124.561l79.872-87.016c6.298-6.927,17.02-7.437,23.947-1.138
	c0.198,0.18,0.392,0.365,0.581,0.554c6.401,6.398,6.647,16.695,0.56,23.392l-79.296,86.208L296.364,124.561z"/>
<path style="fill:#F9E0A0;" d="M172.196,112.393l-24,24l48,40v96h96v-96l32-32l-24-24l-32,24h-56L172.196,112.393z"/>
<path style="fill:#FDC9A6;" d="M236.196,136.393c-13.255,0-24-10.745-24-24l-1.248-48h48l1.248,48
	C260.196,125.647,249.451,136.393,236.196,136.393z"/>
<path style="fill:#5B3726;" d="M210.948,95.649l16-24l4.24,3.2c16.377,11.938,38.967,10.368,53.536-3.72l7.472-7.48l-21.264-16
	c-12.184-9.749-28.924-11.523-42.88-4.544l-9.104,4.56l-0.496,0.328c-13.428,8.952-18.089,26.501-10.872,40.936L210.948,95.649z"/>
<path style="fill:#4799CF;" d="M292.196,264.393l5.504,27.536c1.603,8.004,0.086,16.318-4.24,23.24l-33.264,53.224l40,72v16h-40v-16
	l-40-72l16-48l-48,48l32,72v16h-40v-16l-32-72l48-80v-24H292.196z"/>
<g>
	<path style="fill:#1F6C8C;" d="M220.196,472.393h-64v-8c0-13.255,10.745-24,24-24l0,0h40V472.393z"/>
	<path style="fill:#1F6C8C;" d="M300.196,472.393h-64v-8c0-13.255,10.745-24,24-24l0,0h40V472.393z"/>
</g>
<g>
	<path style="fill:#FBB540;" d="M65.908,390.105l-13.712,34.288l-13.712-34.288L4.196,376.393l34.288-13.712l13.712-34.288
		l13.712,34.288l34.288,13.712L65.908,390.105z"/>
	<path style="fill:#FBB540;" d="M433.908,190.105l-13.712,34.288l-13.712-34.288l-34.288-13.712l34.288-13.712l13.712-34.288
		l13.712,34.288l34.288,13.712L433.908,190.105z"/>
</g>
<g>
	<path style="fill:#EA9D2D;" d="M420.196,384.393h16v16h-16V384.393z"/>
	<path style="fill:#EA9D2D;" d="M420.196,432.393h16v16h-16V432.393z"/>
	<path style="fill:#EA9D2D;" d="M444.196,408.393h16v16h-16V408.393z"/>
	<path style="fill:#EA9D2D;" d="M396.196,408.393h16v16h-16V408.393z"/>
	<path style="fill:#EA9D2D;" d="M68.196,168.393h16v16h-16V168.393z"/>
	<path style="fill:#EA9D2D;" d="M68.196,200.393h16v16h-16V200.393z"/>
	<path style="fill:#EA9D2D;" d="M84.196,184.393h16v16h-16V184.393z"/>
	<path style="fill:#EA9D2D;" d="M52.196,184.393h16v16h-16V184.393z"/>
</g>
<g>
	<path style="fill:#F9E0A0;" d="M332.196,328.393c-4.418-0.001-7.999-3.583-7.998-8.002c0-2.121,0.843-4.154,2.342-5.654
		l10.344-10.344l-10.344-10.344c-3.07-3.178-2.982-8.242,0.196-11.312c3.1-2.995,8.016-2.995,11.116,0l16,16
		c3.123,3.124,3.123,8.188,0,11.312l-16,16C336.352,327.549,334.318,328.392,332.196,328.393z"/>
	<path style="fill:#F9E0A0;" d="M372.196,328.393c-4.418-0.001-7.999-3.583-7.998-8.002c0-2.121,0.843-4.154,2.342-5.654
		l10.344-10.344l-10.344-10.344c-3.07-3.178-2.982-8.242,0.196-11.312c3.1-2.995,8.016-2.995,11.116,0l16,16
		c3.123,3.124,3.123,8.188,0,11.312l-16,16C376.352,327.549,374.318,328.392,372.196,328.393z"/>
	<path style="fill:#F9E0A0;" d="M76.196,104.393c-2.122,0-4.156-0.844-5.656-2.344l-16-16c-3.123-3.124-3.123-8.188,0-11.312l16-16
		c3.178-3.069,8.243-2.981,11.312,0.197c2.994,3.1,2.994,8.015,0,11.115L71.508,80.393l10.344,10.344
		c3.124,3.125,3.123,8.19-0.002,11.314C80.351,103.55,78.317,104.392,76.196,104.393z"/>
	<path style="fill:#F9E0A0;" d="M36.196,104.393c-2.122,0-4.156-0.844-5.656-2.344l-16-16c-3.123-3.124-3.123-8.188,0-11.312l16-16
		c3.178-3.069,8.243-2.981,11.312,0.197c2.994,3.1,2.994,8.015,0,11.115L31.508,80.393l10.344,10.344
		c3.124,3.125,3.123,8.19-0.002,11.314C40.351,103.55,38.317,104.392,36.196,104.393z"/>
</g>
<path style="fill:#F7E4BA;" d="M268.196,144.393h-56l-40-32l-24,24l48,40v88h51.28c30.792-46.552,40.552-108.944,43.496-137.08
	L268.196,144.393z"/>
<path style="fill:#6CBAE5;" d="M247.476,264.393h-51.28v24l-17.352,28.92C207.473,308.756,231.922,289.905,247.476,264.393z"/>
<g>
</g>
<g>
</g>
<g>
</g>
<g>
</g>
<g>
</g>
<g>
</g>
<g>
</g>
<g>
</g>
<g>
</g>
<g>
</g>
<g>
</g>
<g>
</g>
<g>
</g>
<g>
</g>
<g>
</g>
</svg>
