<svg height="511pt" viewBox="0 -31 511.9998 511" width="511pt" xmlns="http://www.w3.org/2000/svg"><path d="m441.691406 289.695312c-28.199218 94.796876-116.996094 160.796876-215.695312 160.796876-124.199219 0-225.996094-100.796876-225.996094-224.996094 0-124.199219 101.796875-224.996094 225.996094-224.996094 98.699218 0 187.496094 66 215.695312 160.796875 2.402344 7.800781-2.097656 16.199219-10.199218 18.601563v91.195312c8.101562 2.402344 12.601562 10.800781 10.199218 18.601562zm0 0" fill="#e63950"/><path d="m441.691406 289.695312c-28.199218 94.796876-116.996094 160.796876-215.695312 160.796876-124.199219 0-225.996094-100.796876-225.996094-224.996094h431.492188v45.597656c8.101562 2.402344 12.601562 10.800781 10.199218 18.601562zm0 0" fill="#cc2e43"/><path d="m225.996094 60.5c-90.898438 0-165.996094 74.097656-165.996094 164.996094 0 90.898437 75.097656 164.996094 165.996094 164.996094 90.898437 0 164.996094-74.097657 164.996094-164.996094 0-90.898438-74.097657-164.996094-164.996094-164.996094zm0 0" fill="#c6e2e7"/><path d="m390.992188 225.496094c0 90.898437-74.097657 164.996094-164.996094 164.996094-90.898438 0-165.996094-74.097657-165.996094-164.996094zm0 0" fill="#a8d3d8"/><path d="m225.996094 120.496094c-57.898438 0-104.996094 47.101562-104.996094 105 0 57.898437 47.097656 105 104.996094 105 57.898437 0 105-47.101563 105-105 0-57.898438-47.101563-105-105-105zm0 0" fill="#e63950"/><path d="m330.996094 225.496094c0 57.898437-47.101563 105-105 105-57.898438 0-104.996094-47.101563-104.996094-105zm0 0" fill="#cc2e43"/><path d="m225.996094 180.496094c-24.898438 0-45 20.101562-45 45 0 24.898437 20.101562 45 45 45 24.902344 0 45-20.101563 45-45 0-24.898438-20.097656-45-45-45zm0 0" fill="#c6e2e7"/><path d="m180.996094 225.496094h90c0 24.898437-20.097656 45-45 45-24.898438 0-45-20.101563-45-45zm0 0" fill="#a8d3d8"/><path d="m483.792969 225.496094 26.699219-53.398438c2.101562-4.5 2.101562-10.199218-.601563-14.398437-3-4.503907-7.800781-7.203125-12.898437-7.203125h-91c-5.699219 0-10.800782 3.300781-13.5 8.398437l-30 60c-.898438 2.101563-1.5 4.199219-1.5 6.601563 0 2.398437.601562 4.5 1.5 6.597656l30 60c2.703124 5.101562 7.800781 8.402344 13.5 8.402344h91c5.097656 0 9.898437-2.703125 12.898437-7.199219 2.703125-4.203125 2.703125-9.902344.601563-14.402344zm0 0" fill="#fdbf00"/><path d="m509.890625 293.296875c-2.996094 4.496094-7.796875 7.199219-12.898437 7.199219h-91c-5.699219 0-10.796876-3.300782-13.5-8.402344l-29.996094-60c-.902344-2.097656-1.5-4.199219-1.5-6.597656h122.796875l26.699219 53.398437c2.101562 4.5 2.101562 10.199219-.601563 14.402344zm0 0" fill="#ff9f00"/><path d="m511.992188 225.496094c0 8.398437-6.597657 15-15 15h-240.996094c-8.402344 0-15-6.601563-15-15 0-8.402344 6.597656-15 15-15h240.996094c8.402343 0 15 6.597656 15 15zm0 0" fill="#596c76"/><path d="m511.992188 225.496094c0 8.398437-6.597657 15-15 15h-240.996094c-8.402344 0-15-6.601563-15-15zm0 0" fill="#465a61"/></svg>